<svg class="rich-terminal" viewBox="0 0 1287 879.5999999999999" xmlns="http://www.w3.org/2000/svg">
    <!-- Generated with Rich https://www.textualize.io -->
    <style>

    @font-face {
        font-family: "Fira Code";
        src: local("FiraCode-Regular"),
                url("https://cdnjs.cloudflare.com/ajax/libs/firacode/6.2.0/woff2/FiraCode-Regular.woff2") format("woff2"),
                url("https://cdnjs.cloudflare.com/ajax/libs/firacode/6.2.0/woff/FiraCode-Regular.woff") format("woff");
        font-style: normal;
        font-weight: 400;
    }
    @font-face {
        font-family: "Fira Code";
        src: local("FiraCode-Bold"),
                url("https://cdnjs.cloudflare.com/ajax/libs/firacode/6.2.0/woff2/FiraCode-Bold.woff2") format("woff2"),
                url("https://cdnjs.cloudflare.com/ajax/libs/firacode/6.2.0/woff/FiraCode-Bold.woff") format("woff");
        font-style: bold;
        font-weight: 700;
    }

    .terminal-1193037297-matrix {
        font-family: Fira Code, monospace;
        font-size: 20px;
        line-height: 24.4px;
        font-variant-east-asian: full-width;
    }

    .terminal-1193037297-title {
        font-size: 18px;
        font-weight: bold;
        font-family: arial;
    }

    .terminal-1193037297-r1 { fill: #c5c8c6 }
.terminal-1193037297-r2 { fill: #ddedf9;font-weight: bold }
.terminal-1193037297-r3 { fill: #fea62b;font-weight: bold }
.terminal-1193037297-r4 { fill: #242f38 }
.terminal-1193037297-r5 { fill: #8ad4a1 }
.terminal-1193037297-r6 { fill: #000f18 }
.terminal-1193037297-r7 { fill: #e0e0e0 }
.terminal-1193037297-r8 { fill: #9e9e9e }
.terminal-1193037297-r9 { fill: #e0e0e0;font-weight: bold }
.terminal-1193037297-r10 { fill: #1e1e1e }
.terminal-1193037297-r11 { fill: #191919 }
.terminal-1193037297-r12 { fill: #b17726;font-weight: bold }
.terminal-1193037297-r13 { fill: #004578 }
.terminal-1193037297-r14 { fill: #2d2d2d }
.terminal-1193037297-r15 { fill: #6db2ff }
.terminal-1193037297-r16 { fill: #0d0d0d }
.terminal-1193037297-r17 { fill: #004295 }
.terminal-1193037297-r18 { fill: #ffa62b;font-weight: bold }
.terminal-1193037297-r19 { fill: #495259 }
    </style>

    <defs>
    <clipPath id="terminal-1193037297-clip-terminal">
      <rect x="0" y="0" width="1267.8" height="828.5999999999999" />
    </clipPath>
    <clipPath id="terminal-1193037297-line-0">
    <rect x="0" y="1.5" width="1268.8" height="24.65"/>
            </clipPath>
<clipPath id="terminal-1193037297-line-1">
    <rect x="0" y="25.9" width="1268.8" height="24.65"/>
            </clipPath>
<clipPath id="terminal-1193037297-line-2">
    <rect x="0" y="50.3" width="1268.8" height="24.65"/>
            </clipPath>
<clipPath id="terminal-1193037297-line-3">
    <rect x="0" y="74.7" width="1268.8" height="24.65"/>
            </clipPath>
<clipPath id="terminal-1193037297-line-4">
    <rect x="0" y="99.1" width="1268.8" height="24.65"/>
            </clipPath>
<clipPath id="terminal-1193037297-line-5">
    <rect x="0" y="123.5" width="1268.8" height="24.65"/>
            </clipPath>
<clipPath id="terminal-1193037297-line-6">
    <rect x="0" y="147.9" width="1268.8" height="24.65"/>
            </clipPath>
<clipPath id="terminal-1193037297-line-7">
    <rect x="0" y="172.3" width="1268.8" height="24.65"/>
            </clipPath>
<clipPath id="terminal-1193037297-line-8">
    <rect x="0" y="196.7" width="1268.8" height="24.65"/>
            </clipPath>
<clipPath id="terminal-1193037297-line-9">
    <rect x="0" y="221.1" width="1268.8" height="24.65"/>
            </clipPath>
<clipPath id="terminal-1193037297-line-10">
    <rect x="0" y="245.5" width="1268.8" height="24.65"/>
            </clipPath>
<clipPath id="terminal-1193037297-line-11">
    <rect x="0" y="269.9" width="1268.8" height="24.65"/>
            </clipPath>
<clipPath id="terminal-1193037297-line-12">
    <rect x="0" y="294.3" width="1268.8" height="24.65"/>
            </clipPath>
<clipPath id="terminal-1193037297-line-13">
    <rect x="0" y="318.7" width="1268.8" height="24.65"/>
            </clipPath>
<clipPath id="terminal-1193037297-line-14">
    <rect x="0" y="343.1" width="1268.8" height="24.65"/>
            </clipPath>
<clipPath id="terminal-1193037297-line-15">
    <rect x="0" y="367.5" width="1268.8" height="24.65"/>
            </clipPath>
<clipPath id="terminal-1193037297-line-16">
    <rect x="0" y="391.9" width="1268.8" height="24.65"/>
            </clipPath>
<clipPath id="terminal-1193037297-line-17">
    <rect x="0" y="416.3" width="1268.8" height="24.65"/>
            </clipPath>
<clipPath id="terminal-1193037297-line-18">
    <rect x="0" y="440.7" width="1268.8" height="24.65"/>
            </clipPath>
<clipPath id="terminal-1193037297-line-19">
    <rect x="0" y="465.1" width="1268.8" height="24.65"/>
            </clipPath>
<clipPath id="terminal-1193037297-line-20">
    <rect x="0" y="489.5" width="1268.8" height="24.65"/>
            </clipPath>
<clipPath id="terminal-1193037297-line-21">
    <rect x="0" y="513.9" width="1268.8" height="24.65"/>
            </clipPath>
<clipPath id="terminal-1193037297-line-22">
    <rect x="0" y="538.3" width="1268.8" height="24.65"/>
            </clipPath>
<clipPath id="terminal-1193037297-line-23">
    <rect x="0" y="562.7" width="1268.8" height="24.65"/>
            </clipPath>
<clipPath id="terminal-1193037297-line-24">
    <rect x="0" y="587.1" width="1268.8" height="24.65"/>
            </clipPath>
<clipPath id="terminal-1193037297-line-25">
    <rect x="0" y="611.5" width="1268.8" height="24.65"/>
            </clipPath>
<clipPath id="terminal-1193037297-line-26">
    <rect x="0" y="635.9" width="1268.8" height="24.65"/>
            </clipPath>
<clipPath id="terminal-1193037297-line-27">
    <rect x="0" y="660.3" width="1268.8" height="24.65"/>
            </clipPath>
<clipPath id="terminal-1193037297-line-28">
    <rect x="0" y="684.7" width="1268.8" height="24.65"/>
            </clipPath>
<clipPath id="terminal-1193037297-line-29">
    <rect x="0" y="709.1" width="1268.8" height="24.65"/>
            </clipPath>
<clipPath id="terminal-1193037297-line-30">
    <rect x="0" y="733.5" width="1268.8" height="24.65"/>
            </clipPath>
<clipPath id="terminal-1193037297-line-31">
    <rect x="0" y="757.9" width="1268.8" height="24.65"/>
            </clipPath>
<clipPath id="terminal-1193037297-line-32">
    <rect x="0" y="782.3" width="1268.8" height="24.65"/>
            </clipPath>
    </defs>

    <rect fill="#292929" stroke="rgba(255,255,255,0.35)" stroke-width="1" x="1" y="1" width="1285" height="877.6" rx="8"/><text class="terminal-1193037297-title" fill="#c5c8c6" text-anchor="middle" x="642" y="27">arrsenal</text>
            <g transform="translate(26,22)">
            <circle cx="0" cy="0" r="7" fill="#ff5f57"/>
            <circle cx="22" cy="0" r="7" fill="#febc2e"/>
            <circle cx="44" cy="0" r="7" fill="#28c840"/>
            </g>
        
    <g transform="translate(9, 41)" clip-path="url(#terminal-1193037297-clip-terminal)">
    <rect fill="#0178d4" x="0" y="1.5" width="317.2" height="24.65" shape-rendering="crispEdges"/><rect fill="#0178d4" x="317.2" y="1.5" width="634.4" height="24.65" shape-rendering="crispEdges"/><rect fill="#0178d4" x="951.6" y="1.5" width="317.2" height="24.65" shape-rendering="crispEdges"/><rect fill="#1e1e1e" x="0" y="25.9" width="1268.8" height="24.65" shape-rendering="crispEdges"/><rect fill="#1e1e1e" x="0" y="50.3" width="24.4" height="24.65" shape-rendering="crispEdges"/><rect fill="#1e1e1e" x="24.4" y="50.3" width="1220" height="24.65" shape-rendering="crispEdges"/><rect fill="#1e1e1e" x="1244.4" y="50.3" width="24.4" height="24.65" shape-rendering="crispEdges"/><rect fill="#1e1e1e" x="0" y="74.7" width="24.4" height="24.65" shape-rendering="crispEdges"/><rect fill="#1e1e1e" x="24.4" y="74.7" width="244" height="24.65" shape-rendering="crispEdges"/><rect fill="#1e1e1e" x="268.4" y="74.7" width="976" height="24.65" shape-rendering="crispEdges"/><rect fill="#1e1e1e" x="1244.4" y="74.7" width="24.4" height="24.65" shape-rendering="crispEdges"/><rect fill="#1e1e1e" x="0" y="99.1" width="24.4" height="24.65" shape-rendering="crispEdges"/><rect fill="#1e1e1e" x="24.4" y="99.1" width="24.4" height="24.65" shape-rendering="crispEdges"/><rect fill="#272727" x="48.8" y="99.1" width="12.2" height="24.65" shape-rendering="crispEdges"/><rect fill="#272727" x="61" y="99.1" width="12.2" height="24.65" shape-rendering="crispEdges"/><rect fill="#242f38" x="73.2" y="99.1" width="12.2" height="24.65" shape-rendering="crispEdges"/><rect fill="#272727" x="85.4" y="99.1" width="12.2" height="24.65" shape-rendering="crispEdges"/><rect fill="#0178d4" x="97.6" y="99.1" width="183" height="24.65" shape-rendering="crispEdges"/><rect fill="#272727" x="280.6" y="99.1" width="951.6" height="24.65" shape-rendering="crispEdges"/><rect fill="#272727" x="1232.2" y="99.1" width="12.2" height="24.65" shape-rendering="crispEdges"/><rect fill="#1e1e1e" x="1244.4" y="99.1" width="24.4" height="24.65" shape-rendering="crispEdges"/><rect fill="#1e1e1e" x="0" y="123.5" width="24.4" height="24.65" shape-rendering="crispEdges"/><rect fill="#1e1e1e" x="24.4" y="123.5" width="24.4" height="24.65" shape-rendering="crispEdges"/><rect fill="#272727" x="48.8" y="123.5" width="12.2" height="24.65" shape-rendering="crispEdges"/><rect fill="#272727" x="61" y="123.5" width="12.2" height="24.65" shape-rendering="crispEdges"/><rect fill="#242f38" x="73.2" y="123.5" width="12.2" height="24.65" shape-rendering="crispEdges"/><rect fill="#272727" x="85.4" y="123.5" width="12.2" height="24.65" shape-rendering="crispEdges"/><rect fill="#272727" x="97.6" y="123.5" width="97.6" height="24.65" shape-rendering="crispEdges"/><rect fill="#272727" x="195.2" y="123.5" width="1037" height="24.65" shape-rendering="crispEdges"/><rect fill="#272727" x="1232.2" y="123.5" width="12.2" height="24.65" shape-rendering="crispEdges"/><rect fill="#1e1e1e" x="1244.4" y="123.5" width="24.4" height="24.65" shape-rendering="crispEdges"/><rect fill="#1e1e1e" x="0" y="147.9" width="24.4" height="24.65" shape-rendering="crispEdges"/><rect fill="#1e1e1e" x="24.4" y="147.9" width="24.4" height="24.65" shape-rendering="crispEdges"/><rect fill="#272727" x="48.8" y="147.9" width="12.2" height="24.65" shape-rendering="crispEdges"/><rect fill="#272727" x="61" y="147.9" width="12.2" height="24.65" shape-rendering="crispEdges"/><rect fill="#242f38" x="73.2" y="147.9" width="12.2" height="24.65" shape-rendering="crispEdges"/><rect fill="#272727" x="85.4" y="147.9" width="12.2" height="24.65" shape-rendering="crispEdges"/><rect fill="#272727" x="97.6" y="147.9" width="122" height="24.65" shape-rendering="crispEdges"/><rect fill="#272727" x="219.6" y="147.9" width="1012.6" height="24.65" shape-rendering="crispEdges"/><rect fill="#272727" x="1232.2" y="147.9" width="12.2" height="24.65" shape-rendering="crispEdges"/><rect fill="#1e1e1e" x="1244.4" y="147.9" width="24.4" height="24.65" shape-rendering="crispEdges"/><rect fill="#1e1e1e" x="0" y="172.3" width="24.4" height="24.65" shape-rendering="crispEdges"/><rect fill="#1e1e1e" x="24.4" y="172.3" width="24.4" height="24.65" shape-rendering="crispEdges"/><rect fill="#272727" x="48.8" y="172.3" width="12.2" height="24.65" shape-rendering="crispEdges"/><rect fill="#272727" x="61" y="172.3" width="12.2" height="24.65" shape-rendering="crispEdges"/><rect fill="#242f38" x="73.2" y="172.3" width="12.2" height="24.65" shape-rendering="crispEdges"/><rect fill="#272727" x="85.4" y="172.3" width="12.2" height="24.65" shape-rendering="crispEdges"/><rect fill="#272727" x="97.6" y="172.3" width="109.8" height="24.65" shape-rendering="crispEdges"/><rect fill="#272727" x="207.4" y="172.3" width="1024.8" height="24.65" shape-rendering="crispEdges"/><rect fill="#272727" x="1232.2" y="172.3" width="12.2" height="24.65" shape-rendering="crispEdges"/><rect fill="#1e1e1e" x="1244.4" y="172.3" width="24.4" height="24.65" shape-rendering="crispEdges"/><rect fill="#1e1e1e" x="0" y="196.7" width="24.4" height="24.65" shape-rendering="crispEdges"/><rect fill="#1e1e1e" x="24.4" y="196.7" width="109.8" height="24.65" shape-rendering="crispEdges"/><rect fill="#1e1e1e" x="134.2" y="196.7" width="12.2" height="24.65" shape-rendering="crispEdges"/><rect fill="#1e1e1e" x="146.4" y="196.7" width="109.8" height="24.65" shape-rendering="crispEdges"/><rect fill="#1e1e1e" x="256.2" y="196.7" width="12.2" height="24.65" shape-rendering="crispEdges"/><rect fill="#1e1e1e" x="268.4" y="196.7" width="268.4" height="24.65" shape-rendering="crispEdges"/><rect fill="#1e1e1e" x="536.8" y="196.7" width="707.6" height="24.65" shape-rendering="crispEdges"/><rect fill="#1e1e1e" x="1244.4" y="196.7" width="24.4" height="24.65" shape-rendering="crispEdges"/><rect fill="#1e1e1e" x="0" y="221.1" width="24.4" height="24.65" shape-rendering="crispEdges"/><rect fill="#1e1e1e" x="24.4" y="221.1" width="1098" height="24.65" shape-rendering="crispEdges"/><rect fill="#1e1e1e" x="1122.4" y="221.1" width="122" height="24.65" shape-rendering="crispEdges"/><rect fill="#1e1e1e" x="1244.4" y="221.1" width="24.4" height="24.65" shape-rendering="crispEdges"/><rect fill="#1e1e1e" x="0" y="245.5" width="24.4" height="24.65" shape-rendering="crispEdges"/><rect fill="#1e1e1e" x="24.4" y="245.5" width="1220" height="24.65" shape-rendering="crispEdges"/><rect fill="#1e1e1e" x="1244.4" y="245.5" width="24.4" height="24.65" shape-rendering="crispEdges"/><rect fill="#1e1e1e" x="0" y="269.9" width="24.4" height="24.65" shape-rendering="crispEdges"/><rect fill="#1e1e1e" x="24.4" y="269.9" width="305" height="24.65" shape-rendering="crispEdges"/><rect fill="#1e1e1e" x="329.4" y="269.9" width="915" height="24.65" shape-rendering="crispEdges"/><rect fill="#1e1e1e" x="1244.4" y="269.9" width="24.4" height="24.65" shape-rendering="crispEdges"/><rect fill="#1e1e1e" x="0" y="294.3" width="24.4" height="24.65" shape-rendering="crispEdges"/><rect fill="#1e1e1e" x="24.4" y="294.3" width="24.4" height="24.65" shape-rendering="crispEdges"/><rect fill="#191919" x="48.8" y="294.3" width="12.2" height="24.65" shape-rendering="crispEdges"/><rect fill="#1e1e1e" x="61" y="294.3" width="1171.2" height="24.65" shape-rendering="crispEdges"/><rect fill="#1e1e1e" x="1232.2" y="294.3" width="12.2" height="24.65" shape-rendering="crispEdges"/><rect fill="#1e1e1e" x="1244.4" y="294.3" width="24.4" height="24.65" shape-rendering="crispEdges"/><rect fill="#1e1e1e" x="0" y="318.7" width="24.4" height="24.65" shape-rendering="crispEdges"/><rect fill="#1e1e1e" x="24.4" y="318.7" width="24.4" height="24.65" shape-rendering="crispEdges"/><rect fill="#191919" x="48.8" y="318.7" width="12.2" height="24.65" shape-rendering="crispEdges"/><rect fill="#1e1e1e" x="61" y="318.7" width="24.4" height="24.65" shape-rendering="crispEdges"/><rect fill="#1e1e1e" x="85.4" y="318.7" width="244" height="24.65" shape-rendering="crispEdges"/><rect fill="#1e1e1e" x="329.4" y="318.7" width="878.4" height="24.65" shape-rendering="crispEdges"/><rect fill="#1e1e1e" x="1207.8" y="318.7" width="24.4" height="24.65" shape-rendering="crispEdges"/><rect fill="#1e1e1e" x="1232.2" y="318.7" width="12.2" height="24.65" shape-rendering="crispEdges"/><rect fill="#1e1e1e" x="1244.4" y="318.7" width="24.4" height="24.65" shape-rendering="crispEdges"/><rect fill="#1e1e1e" x="0" y="343.1" width="24.4" height="24.65" shape-rendering="crispEdges"/><rect fill="#1e1e1e" x="24.4" y="343.1" width="24.4" height="24.65" shape-rendering="crispEdges"/><rect fill="#191919" x="48.8" y="343.1" width="12.2" height="24.65" shape-rendering="crispEdges"/><rect fill="#1e1e1e" x="61" y="343.1" width="1171.2" height="24.65" shape-rendering="crispEdges"/><rect fill="#1e1e1e" x="1232.2" y="343.1" width="12.2" height="24.65" shape-rendering="crispEdges"/><rect fill="#1e1e1e" x="1244.4" y="343.1" width="24.4" height="24.65" shape-rendering="crispEdges"/><rect fill="#1e1e1e" x="0" y="367.5" width="24.4" height="24.65" shape-rendering="crispEdges"/><rect fill="#1e1e1e" x="24.4" y="367.5" width="1220" height="24.65" shape-rendering="crispEdges"/><rect fill="#1e1e1e" x="1244.4" y="367.5" width="24.4" height="24.65" shape-rendering="crispEdges"/><rect fill="#1e1e1e" x="0" y="391.9" width="24.4" height="24.65" shape-rendering="crispEdges"/><rect fill="#1e1e1e" x="24.4" y="391.9" width="231.8" height="24.65" shape-rendering="crispEdges"/><rect fill="#1e1e1e" x="256.2" y="391.9" width="524.6" height="24.65" shape-rendering="crispEdges"/><rect fill="#1e1e1e" x="780.8" y="391.9" width="463.6" height="24.65" shape-rendering="crispEdges"/><rect fill="#1e1e1e" x="1244.4" y="391.9" width="24.4" height="24.65" shape-rendering="crispEdges"/><rect fill="#1e1e1e" x="0" y="416.3" width="24.4" height="24.65" shape-rendering="crispEdges"/><rect fill="#1e1e1e" x="24.4" y="416.3" width="24.4" height="24.65" shape-rendering="crispEdges"/><rect fill="#191919" x="48.8" y="416.3" width="12.2" height="24.65" shape-rendering="crispEdges"/><rect fill="#1e1e1e" x="61" y="416.3" width="1171.2" height="24.65" shape-rendering="crispEdges"/><rect fill="#1e1e1e" x="1232.2" y="416.3" width="12.2" height="24.65" shape-rendering="crispEdges"/><rect fill="#1e1e1e" x="1244.4" y="416.3" width="24.4" height="24.65" shape-rendering="crispEdges"/><rect fill="#1e1e1e" x="0" y="440.7" width="24.4" height="24.65" shape-rendering="crispEdges"/><rect fill="#1e1e1e" x="24.4" y="440.7" width="24.4" height="24.65" shape-rendering="crispEdges"/><rect fill="#191919" x="48.8" y="440.7" width="12.2" height="24.65" shape-rendering="crispEdges"/><rect fill="#1e1e1e" x="61" y="440.7" width="24.4" height="24.65" shape-rendering="crispEdges"/><rect fill="#1e1e1e" x="85.4" y="440.7" width="109.8" height="24.65" shape-rendering="crispEdges"/><rect fill="#1e1e1e" x="195.2" y="440.7" width="1012.6" height="24.65" shape-rendering="crispEdges"/><rect fill="#1e1e1e" x="1207.8" y="440.7" width="24.4" height="24.65" shape-rendering="crispEdges"/><rect fill="#1e1e1e" x="1232.2" y="440.7" width="12.2" height="24.65" shape-rendering="crispEdges"/><rect fill="#1e1e1e" x="1244.4" y="440.7" width="24.4" height="24.65" shape-rendering="crispEdges"/><rect fill="#1e1e1e" x="0" y="465.1" width="24.4" height="24.65" shape-rendering="crispEdges"/><rect fill="#1e1e1e" x="24.4" y="465.1" width="24.4" height="24.65" shape-rendering="crispEdges"/><rect fill="#191919" x="48.8" y="465.1" width="12.2" height="24.65" shape-rendering="crispEdges"/><rect fill="#1e1e1e" x="61" y="465.1" width="1171.2" height="24.65" shape-rendering="crispEdges"/><rect fill="#1e1e1e" x="1232.2" y="465.1" width="12.2" height="24.65" shape-rendering="crispEdges"/><rect fill="#1e1e1e" x="1244.4" y="465.1" width="24.4" height="24.65" shape-rendering="crispEdges"/><rect fill="#1e1e1e" x="0" y="489.5" width="24.4" height="24.65" shape-rendering="crispEdges"/><rect fill="#1e1e1e" x="24.4" y="489.5" width="1220" height="24.65" shape-rendering="crispEdges"/><rect fill="#1e1e1e" x="1244.4" y="489.5" width="24.4" height="24.65" shape-rendering="crispEdges"/><rect fill="#1e1e1e" x="0" y="513.9" width="24.4" height="24.65" shape-rendering="crispEdges"/><rect fill="#1e1e1e" x="24.4" y="513.9" width="170.8" height="24.65" shape-rendering="crispEdges"/><rect fill="#1e1e1e" x="195.2" y="513.9" width="1049.2" height="24.65" shape-rendering="crispEdges"/><rect fill="#1e1e1e" x="1244.4" y="513.9" width="24.4" height="24.65" shape-rendering="crispEdges"/><rect fill="#1e1e1e" x="0" y="538.3" width="24.4" height="24.65" shape-rendering="crispEdges"/><rect fill="#1e1e1e" x="24.4" y="538.3" width="24.4" height="24.65" shape-rendering="crispEdges"/><rect fill="#191919" x="48.8" y="538.3" width="12.2" height="24.65" shape-rendering="crispEdges"/><rect fill="#1e1e1e" x="61" y="538.3" width="1171.2" height="24.65" shape-rendering="crispEdges"/><rect fill="#1e1e1e" x="1232.2" y="538.3" width="12.2" height="24.65" shape-rendering="crispEdges"/><rect fill="#1e1e1e" x="1244.4" y="538.3" width="24.4" height="24.65" shape-rendering="crispEdges"/><rect fill="#1e1e1e" x="0" y="562.7" width="24.4" height="24.65" shape-rendering="crispEdges"/><rect fill="#1e1e1e" x="24.4" y="562.7" width="24.4" height="24.65" shape-rendering="crispEdges"/><rect fill="#191919" x="48.8" y="562.7" width="12.2" height="24.65" shape-rendering="crispEdges"/><rect fill="#1e1e1e" x="61" y="562.7" width="24.4" height="24.65" shape-rendering="crispEdges"/><rect fill="#1e1e1e" x="85.4" y="562.7" width="146.4" height="24.65" shape-rendering="crispEdges"/><rect fill="#1e1e1e" x="231.8" y="562.7" width="976" height="24.65" shape-rendering="crispEdges"/><rect fill="#1e1e1e" x="1207.8" y="562.7" width="24.4" height="24.65" shape-rendering="crispEdges"/><rect fill="#1e1e1e" x="1232.2" y="562.7" width="12.2" height="24.65" shape-rendering="crispEdges"/><rect fill="#1e1e1e" x="1244.4" y="562.7" width="24.4" height="24.65" shape-rendering="crispEdges"/><rect fill="#1e1e1e" x="0" y="587.1" width="24.4" height="24.65" shape-rendering="crispEdges"/><rect fill="#1e1e1e" x="24.4" y="587.1" width="24.4" height="24.65" shape-rendering="crispEdges"/><rect fill="#191919" x="48.8" y="587.1" width="12.2" height="24.65" shape-rendering="crispEdges"/><rect fill="#1e1e1e" x="61" y="587.1" width="1171.2" height="24.65" shape-rendering="crispEdges"/><rect fill="#1e1e1e" x="1232.2" y="587.1" width="12.2" height="24.65" shape-rendering="crispEdges"/><rect fill="#1e1e1e" x="1244.4" y="587.1" width="24.4" height="24.65" shape-rendering="crispEdges"/><rect fill="#1e1e1e" x="0" y="611.5" width="24.4" height="24.65" shape-rendering="crispEdges"/><rect fill="#1e1e1e" x="24.4" y="611.5" width="1220" height="24.65" shape-rendering="crispEdges"/><rect fill="#1e1e1e" x="1244.4" y="611.5" width="24.4" height="24.65" shape-rendering="crispEdges"/><rect fill="#1e1e1e" x="0" y="635.9" width="24.4" height="24.65" shape-rendering="crispEdges"/><rect fill="#1e1e1e" x="24.4" y="635.9" width="1220" height="24.65" shape-rendering="crispEdges"/><rect fill="#1e1e1e" x="1244.4" y="635.9" width="24.4" height="24.65" shape-rendering="crispEdges"/><rect fill="#1e1e1e" x="0" y="660.3" width="1268.8" height="24.65" shape-rendering="crispEdges"/><rect fill="#1e1e1e" x="0" y="684.7" width="1268.8" height="24.65" shape-rendering="crispEdges"/><rect fill="#1e1e1e" x="0" y="709.1" width="24.4" height="24.65" shape-rendering="crispEdges"/><rect fill="#1e1e1e" x="24.4" y="709.1" width="268.4" height="24.65" shape-rendering="crispEdges"/><rect fill="#1e1e1e" x="292.8" y="709.1" width="24.4" height="24.65" shape-rendering="crispEdges"/><rect fill="#0178d4" x="317.2" y="709.1" width="195.2" height="24.65" shape-rendering="crispEdges"/><rect fill="#1e1e1e" x="512.4" y="709.1" width="24.4" height="24.65" shape-rendering="crispEdges"/><rect fill="#1e1e1e" x="536.8" y="709.1" width="195.2" height="24.65" shape-rendering="crispEdges"/><rect fill="#1e1e1e" x="732" y="709.1" width="512.4" height="24.65" shape-rendering="crispEdges"/><rect fill="#1e1e1e" x="1244.4" y="709.1" width="24.4" height="24.65" shape-rendering="crispEdges"/><rect fill="#1e1e1e" x="0" y="733.5" width="24.4" height="24.65" shape-rendering="crispEdges"/><rect fill="#1e1e1e" x="24.4" y="733.5" width="268.4" height="24.65" shape-rendering="crispEdges"/><rect fill="#1e1e1e" x="292.8" y="733.5" width="24.4" height="24.65" shape-rendering="crispEdges"/><rect fill="#0178d4" x="317.2" y="733.5" width="24.4" height="24.65" shape-rendering="crispEdges"/><rect fill="#0178d4" x="341.6" y="733.5" width="134.2" height="24.65" shape-rendering="crispEdges"/><rect fill="#0178d4" x="475.8" y="733.5" width="36.6" height="24.65" shape-rendering="crispEdges"/><rect fill="#1e1e1e" x="512.4" y="733.5" width="24.4" height="24.65" shape-rendering="crispEdges"/><rect fill="#1e1e1e" x="536.8" y="733.5" width="48.8" height="24.65" shape-rendering="crispEdges"/><rect fill="#1e1e1e" x="585.6" y="733.5" width="97.6" height="24.65" shape-rendering="crispEdges"/><rect fill="#1e1e1e" x="683.2" y="733.5" width="48.8" height="24.65" shape-rendering="crispEdges"/><rect fill="#1e1e1e" x="732" y="733.5" width="512.4" height="24.65" shape-rendering="crispEdges"/><rect fill="#1e1e1e" x="1244.4" y="733.5" width="24.4" height="24.65" shape-rendering="crispEdges"/><rect fill="#1e1e1e" x="0" y="757.9" width="24.4" height="24.65" shape-rendering="crispEdges"/><rect fill="#1e1e1e" x="24.4" y="757.9" width="268.4" height="24.65" shape-rendering="crispEdges"/><rect fill="#1e1e1e" x="292.8" y="757.9" width="24.4" height="24.65" shape-rendering="crispEdges"/><rect fill="#0178d4" x="317.2" y="757.9" width="195.2" height="24.65" shape-rendering="crispEdges"/><rect fill="#1e1e1e" x="512.4" y="757.9" width="24.4" height="24.65" shape-rendering="crispEdges"/><rect fill="#1e1e1e" x="536.8" y="757.9" width="195.2" height="24.65" shape-rendering="crispEdges"/><rect fill="#1e1e1e" x="732" y="757.9" width="512.4" height="24.65" shape-rendering="crispEdges"/><rect fill="#1e1e1e" x="1244.4" y="757.9" width="24.4" height="24.65" shape-rendering="crispEdges"/><rect fill="#1e1e1e" x="0" y="782.3" width="1268.8" height="24.65" shape-rendering="crispEdges"/><rect fill="#242f38" x="0" y="806.7" width="61" height="24.65" shape-rendering="crispEdges"/><rect fill="#242f38" x="61" y="806.7" width="85.4" height="24.65" shape-rendering="crispEdges"/><rect fill="#242f38" x="146.4" y="806.7" width="976" height="24.65" shape-rendering="crispEdges"/><rect fill="#242f38" x="1122.4" y="806.7" width="12.2" height="24.65" shape-rendering="crispEdges"/><rect fill="#242f38" x="1134.6" y="806.7" width="24.4" height="24.65" shape-rendering="crispEdges"/><rect fill="#242f38" x="1159" y="806.7" width="97.6" height="24.65" shape-rendering="crispEdges"/><rect fill="#242f38" x="1256.6" y="806.7" width="12.2" height="24.65" shape-rendering="crispEdges"/>
    <g class="terminal-1193037297-matrix">
    <text class="terminal-1193037297-r2" x="317.2" y="20" textLength="634.4" clip-path="url(#terminal-1193037297-line-0)">arrsenal&#160;0.1.3&#160;&#160;—&#160;&#160;Etape&#160;2/3&#160;-&#160;Chemins&#160;et&#160;plateforme</text><text class="terminal-1193037297-r1" x="1268.8" y="20" textLength="12.2" clip-path="url(#terminal-1193037297-line-0)">
</text><text class="terminal-1193037297-r1" x="1268.8" y="44.4" textLength="12.2" clip-path="url(#terminal-1193037297-line-1)">
</text><text class="terminal-1193037297-r1" x="1268.8" y="68.8" textLength="12.2" clip-path="url(#terminal-1193037297-line-2)">
</text><text class="terminal-1193037297-r3" x="24.4" y="93.2" textLength="244" clip-path="url(#terminal-1193037297-line-3)">Profil&#160;de&#160;plateforme</text><text class="terminal-1193037297-r1" x="1268.8" y="93.2" textLength="12.2" clip-path="url(#terminal-1193037297-line-3)">
</text><text class="terminal-1193037297-r4" x="61" y="117.6" textLength="12.2" clip-path="url(#terminal-1193037297-line-4)">▐</text><text class="terminal-1193037297-r5" x="73.2" y="117.6" textLength="12.2" clip-path="url(#terminal-1193037297-line-4)">●</text><text class="terminal-1193037297-r4" x="85.4" y="117.6" textLength="12.2" clip-path="url(#terminal-1193037297-line-4)">▌</text><text class="terminal-1193037297-r2" x="97.6" y="117.6" textLength="183" clip-path="url(#terminal-1193037297-line-4)">&#160;generic-linux&#160;</text><text class="terminal-1193037297-r1" x="1268.8" y="117.6" textLength="12.2" clip-path="url(#terminal-1193037297-line-4)">
</text><text class="terminal-1193037297-r4" x="61" y="142" textLength="12.2" clip-path="url(#terminal-1193037297-line-5)">▐</text><text class="terminal-1193037297-r6" x="73.2" y="142" textLength="12.2" clip-path="url(#terminal-1193037297-line-5)">●</text><text class="terminal-1193037297-r4" x="85.4" y="142" textLength="12.2" clip-path="url(#terminal-1193037297-line-5)">▌</text><text class="terminal-1193037297-r7" x="97.6" y="142" textLength="97.6" clip-path="url(#terminal-1193037297-line-5)">&#160;unraid&#160;</text><text class="terminal-1193037297-r1" x="1268.8" y="142" textLength="12.2" clip-path="url(#terminal-1193037297-line-5)">
</text><text class="terminal-1193037297-r4" x="61" y="166.4" textLength="12.2" clip-path="url(#terminal-1193037297-line-6)">▐</text><text class="terminal-1193037297-r6" x="73.2" y="166.4" textLength="12.2" clip-path="url(#terminal-1193037297-line-6)">●</text><text class="terminal-1193037297-r4" x="85.4" y="166.4" textLength="12.2" clip-path="url(#terminal-1193037297-line-6)">▌</text><text class="terminal-1193037297-r7" x="97.6" y="166.4" textLength="122" clip-path="url(#terminal-1193037297-line-6)">&#160;synology&#160;</text><text class="terminal-1193037297-r1" x="1268.8" y="166.4" textLength="12.2" clip-path="url(#terminal-1193037297-line-6)">
</text><text class="terminal-1193037297-r4" x="61" y="190.8" textLength="12.2" clip-path="url(#terminal-1193037297-line-7)">▐</text><text class="terminal-1193037297-r6" x="73.2" y="190.8" textLength="12.2" clip-path="url(#terminal-1193037297-line-7)">●</text><text class="terminal-1193037297-r4" x="85.4" y="190.8" textLength="12.2" clip-path="url(#terminal-1193037297-line-7)">▌</text><text class="terminal-1193037297-r7" x="97.6" y="190.8" textLength="109.8" clip-path="url(#terminal-1193037297-line-7)">&#160;windows&#160;</text><text class="terminal-1193037297-r1" x="1268.8" y="190.8" textLength="12.2" clip-path="url(#terminal-1193037297-line-7)">
</text><text class="terminal-1193037297-r8" x="24.4" y="215.2" textLength="109.8" clip-path="url(#terminal-1193037297-line-8)">PUID/PGID</text><text class="terminal-1193037297-r9" x="146.4" y="215.2" textLength="109.8" clip-path="url(#terminal-1193037297-line-8)">1000:1000</text><text class="terminal-1193037297-r8" x="268.4" y="215.2" textLength="268.4" clip-path="url(#terminal-1193037297-line-8)">-&#160;profil&#160;generic-linux</text><text class="terminal-1193037297-r1" x="1268.8" y="215.2" textLength="12.2" clip-path="url(#terminal-1193037297-line-8)">
</text><text class="terminal-1193037297-r8" x="24.4" y="239.6" textLength="1098" clip-path="url(#terminal-1193037297-line-9)">PUID/PGID&#160;=&#160;l&#x27;utilisateur&#160;Linux,&#160;a&#160;l&#x27;interieur&#160;des&#160;conteneurs,&#160;qui&#160;possedera&#160;vos&#160;fichiers.</text><text class="terminal-1193037297-r1" x="1268.8" y="239.6" textLength="12.2" clip-path="url(#terminal-1193037297-line-9)">
</text><text class="terminal-1193037297-r1" x="1268.8" y="264" textLength="12.2" clip-path="url(#terminal-1193037297-line-10)">
</text><text class="terminal-1193037297-r3" x="24.4" y="288.4" textLength="305" clip-path="url(#terminal-1193037297-line-11)">Racine&#160;des&#160;configurations</text><text class="terminal-1193037297-r1" x="1268.8" y="288.4" textLength="12.2" clip-path="url(#terminal-1193037297-line-11)">
</text><text class="terminal-1193037297-r10" x="48.8" y="312.8" textLength="12.2" clip-path="url(#terminal-1193037297-line-12)">▊</text><text class="terminal-1193037297-r11" x="61" y="312.8" textLength="1171.2" clip-path="url(#terminal-1193037297-line-12)">▔▔▔▔▔▔▔▔▔▔▔▔▔▔▔▔▔▔▔▔▔▔▔▔▔▔▔▔▔▔▔▔▔▔▔▔▔▔▔▔▔▔▔▔▔▔▔▔▔▔▔▔▔▔▔▔▔▔▔▔▔▔▔▔▔▔▔▔▔▔▔▔▔▔▔▔▔▔▔▔▔▔▔▔▔▔▔▔▔▔▔▔▔▔▔▔</text><text class="terminal-1193037297-r11" x="1232.2" y="312.8" textLength="12.2" clip-path="url(#terminal-1193037297-line-12)">▎</text><text class="terminal-1193037297-r1" x="1268.8" y="312.8" textLength="12.2" clip-path="url(#terminal-1193037297-line-12)">
</text><text class="terminal-1193037297-r10" x="48.8" y="337.2" textLength="12.2" clip-path="url(#terminal-1193037297-line-13)">▊</text><text class="terminal-1193037297-r7" x="85.4" y="337.2" textLength="244" clip-path="url(#terminal-1193037297-line-13)">/opt/arrsenal/config</text><text class="terminal-1193037297-r11" x="1232.2" y="337.2" textLength="12.2" clip-path="url(#terminal-1193037297-line-13)">▎</text><text class="terminal-1193037297-r1" x="1268.8" y="337.2" textLength="12.2" clip-path="url(#terminal-1193037297-line-13)">
</text><text class="terminal-1193037297-r10" x="48.8" y="361.6" textLength="12.2" clip-path="url(#terminal-1193037297-line-14)">▊</text><text class="terminal-1193037297-r11" x="61" y="361.6" textLength="1171.2" clip-path="url(#terminal-1193037297-line-14)">▁▁▁▁▁▁▁▁▁▁▁▁▁▁▁▁▁▁▁▁▁▁▁▁▁▁▁▁▁▁▁▁▁▁▁▁▁▁▁▁▁▁▁▁▁▁▁▁▁▁▁▁▁▁▁▁▁▁▁▁▁▁▁▁▁▁▁▁▁▁▁▁▁▁▁▁▁▁▁▁▁▁▁▁▁▁▁▁▁▁▁▁▁▁▁▁</text><text class="terminal-1193037297-r11" x="1232.2" y="361.6" textLength="12.2" clip-path="url(#terminal-1193037297-line-14)">▎</text><text class="terminal-1193037297-r1" x="1268.8" y="361.6" textLength="12.2" clip-path="url(#terminal-1193037297-line-14)">
</text><text class="terminal-1193037297-r1" x="1268.8" y="386" textLength="12.2" clip-path="url(#terminal-1193037297-line-15)">
</text><text class="terminal-1193037297-r3" x="24.4" y="410.4" textLength="231.8" clip-path="url(#terminal-1193037297-line-16)">Racine&#160;des&#160;donnees&#160;</text><text class="terminal-1193037297-r12" x="256.2" y="410.4" textLength="524.6" clip-path="url(#terminal-1193037297-line-16)">(montee&#160;sur&#160;/data&#160;dans&#160;TOUS&#160;les&#160;conteneurs)</text><text class="terminal-1193037297-r1" x="1268.8" y="410.4" textLength="12.2" clip-path="url(#terminal-1193037297-line-16)">
</text><text class="terminal-1193037297-r10" x="48.8" y="434.8" textLength="12.2" clip-path="url(#terminal-1193037297-line-17)">▊</text><text class="terminal-1193037297-r11" x="61" y="434.8" textLength="1171.2" clip-path="url(#terminal-1193037297-line-17)">▔▔▔▔▔▔▔▔▔▔▔▔▔▔▔▔▔▔▔▔▔▔▔▔▔▔▔▔▔▔▔▔▔▔▔▔▔▔▔▔▔▔▔▔▔▔▔▔▔▔▔▔▔▔▔▔▔▔▔▔▔▔▔▔▔▔▔▔▔▔▔▔▔▔▔▔▔▔▔▔▔▔▔▔▔▔▔▔▔▔▔▔▔▔▔▔</text><text class="terminal-1193037297-r11" x="1232.2" y="434.8" textLength="12.2" clip-path="url(#terminal-1193037297-line-17)">▎</text><text class="terminal-1193037297-r1" x="1268.8" y="434.8" textLength="12.2" clip-path="url(#terminal-1193037297-line-17)">
</text><text class="terminal-1193037297-r10" x="48.8" y="459.2" textLength="12.2" clip-path="url(#terminal-1193037297-line-18)">▊</text><text class="terminal-1193037297-r7" x="85.4" y="459.2" textLength="109.8" clip-path="url(#terminal-1193037297-line-18)">/srv/data</text><text class="terminal-1193037297-r11" x="1232.2" y="459.2" textLength="12.2" clip-path="url(#terminal-1193037297-line-18)">▎</text><text class="terminal-1193037297-r1" x="1268.8" y="459.2" textLength="12.2" clip-path="url(#terminal-1193037297-line-18)">
</text><text class="terminal-1193037297-r10" x="48.8" y="483.6" textLength="12.2" clip-path="url(#terminal-1193037297-line-19)">▊</text><text class="terminal-1193037297-r11" x="61" y="483.6" textLength="1171.2" clip-path="url(#terminal-1193037297-line-19)">▁▁▁▁▁▁▁▁▁▁▁▁▁▁▁▁▁▁▁▁▁▁▁▁▁▁▁▁▁▁▁▁▁▁▁▁▁▁▁▁▁▁▁▁▁▁▁▁▁▁▁▁▁▁▁▁▁▁▁▁▁▁▁▁▁▁▁▁▁▁▁▁▁▁▁▁▁▁▁▁▁▁▁▁▁▁▁▁▁▁▁▁▁▁▁▁</text><text class="terminal-1193037297-r11" x="1232.2" y="483.6" textLength="12.2" clip-path="url(#terminal-1193037297-line-19)">▎</text><text class="terminal-1193037297-r1" x="1268.8" y="483.6" textLength="12.2" clip-path="url(#terminal-1193037297-line-19)">
</text><text class="terminal-1193037297-r1" x="1268.8" y="508" textLength="12.2" clip-path="url(#terminal-1193037297-line-20)">
</text><text class="terminal-1193037297-r3" x="24.4" y="532.4" textLength="170.8" clip-path="url(#terminal-1193037297-line-21)">Fuseau&#160;horaire</text><text class="terminal-1193037297-r1" x="1268.8" y="532.4" textLength="12.2" clip-path="url(#terminal-1193037297-line-21)">
</text><text class="terminal-1193037297-r10" x="48.8" y="556.8" textLength="12.2" clip-path="url(#terminal-1193037297-line-22)">▊</text><text class="terminal-1193037297-r11" x="61" y="556.8" textLength="1171.2" clip-path="url(#terminal-1193037297-line-22)">▔▔▔▔▔▔▔▔▔▔▔▔▔▔▔▔▔▔▔▔▔▔▔▔▔▔▔▔▔▔▔▔▔▔▔▔▔▔▔▔▔▔▔▔▔▔▔▔▔▔▔▔▔▔▔▔▔▔▔▔▔▔▔▔▔▔▔▔▔▔▔▔▔▔▔▔▔▔▔▔▔▔▔▔▔▔▔▔▔▔▔▔▔▔▔▔</text><text class="terminal-1193037297-r11" x="1232.2" y="556.8" textLength="12.2" clip-path="url(#terminal-1193037297-line-22)">▎</text><text class="terminal-1193037297-r1" x="1268.8" y="556.8" textLength="12.2" clip-path="url(#terminal-1193037297-line-22)">
</text><text class="terminal-1193037297-r10" x="48.8" y="581.2" textLength="12.2" clip-path="url(#terminal-1193037297-line-23)">▊</text><text class="terminal-1193037297-r7" x="85.4" y="581.2" textLength="146.4" clip-path="url(#terminal-1193037297-line-23)">Europe/Paris</text><text class="terminal-1193037297-r11" x="1232.2" y="581.2" textLength="12.2" clip-path="url(#terminal-1193037297-line-23)">▎</text><text class="terminal-1193037297-r1" x="1268.8" y="581.2" textLength="12.2" clip-path="url(#terminal-1193037297-line-23)">
</text><text class="terminal-1193037297-r10" x="48.8" y="605.6" textLength="12.2" clip-path="url(#terminal-1193037297-line-24)">▊</text><text class="terminal-1193037297-r11" x="61" y="605.6" textLength="1171.2" clip-path="url(#terminal-1193037297-line-24)">▁▁▁▁▁▁▁▁▁▁▁▁▁▁▁▁▁▁▁▁▁▁▁▁▁▁▁▁▁▁▁▁▁▁▁▁▁▁▁▁▁▁▁▁▁▁▁▁▁▁▁▁▁▁▁▁▁▁▁▁▁▁▁▁▁▁▁▁▁▁▁▁▁▁▁▁▁▁▁▁▁▁▁▁▁▁▁▁▁▁▁▁▁▁▁▁</text><text class="terminal-1193037297-r11" x="1232.2" y="605.6" textLength="12.2" clip-path="url(#terminal-1193037297-line-24)">▎</text><text class="terminal-1193037297-r1" x="1268.8" y="605.6" textLength="12.2" clip-path="url(#terminal-1193037297-line-24)">
</text><text class="terminal-1193037297-r1" x="1268.8" y="630" textLength="12.2" clip-path="url(#terminal-1193037297-line-25)">
</text><text class="terminal-1193037297-r13" x="24.4" y="654.4" textLength="1220" clip-path="url(#terminal-1193037297-line-26)">────────────────────────────────────────────────────────────────────────────────────────────────────</text><text class="terminal-1193037297-r1" x="1268.8" y="654.4" textLength="12.2" clip-path="url(#terminal-1193037297-line-26)">
</text><text class="terminal-1193037297-r1" x="1268.8" y="678.8" textLength="12.2" clip-path="url(#terminal-1193037297-line-27)">
</text><text class="terminal-1193037297-r1" x="1268.8" y="703.2" textLength="12.2" clip-path="url(#terminal-1193037297-line-28)">
</text><text class="terminal-1193037297-r14" x="24.4" y="727.6" textLength="268.4" clip-path="url(#terminal-1193037297-line-29)">▔▔▔▔▔▔▔▔▔▔▔▔▔▔▔▔▔▔▔▔▔▔</text><text class="terminal-1193037297-r15" x="317.2" y="727.6" textLength="195.2" clip-path="url(#terminal-1193037297-line-29)">▔▔▔▔▔▔▔▔▔▔▔▔▔▔▔▔</text><text class="terminal-1193037297-r14" x="536.8" y="727.6" textLength="195.2" clip-path="url(#terminal-1193037297-line-29)">▔▔▔▔▔▔▔▔▔▔▔▔▔▔▔▔</text><text class="terminal-1193037297-r1" x="1268.8" y="727.6" textLength="12.2" clip-path="url(#terminal-1193037297-line-29)">
</text><text class="terminal-1193037297-r9" x="24.4" y="752" textLength="268.4" clip-path="url(#terminal-1193037297-line-30)">&#160;Verifier&#160;les&#160;chemins&#160;</text><text class="terminal-1193037297-r2" x="341.6" y="752" textLength="134.2" clip-path="url(#terminal-1193037297-line-30)">&#160;Continuer&#160;</text><text class="terminal-1193037297-r9" x="585.6" y="752" textLength="97.6" clip-path="url(#terminal-1193037297-line-30)">&#160;Retour&#160;</text><text class="terminal-1193037297-r1" x="1268.8" y="752" textLength="12.2" clip-path="url(#terminal-1193037297-line-30)">
</text><text class="terminal-1193037297-r16" x="24.4" y="776.4" textLength="268.4" clip-path="url(#terminal-1193037297-line-31)">▁▁▁▁▁▁▁▁▁▁▁▁▁▁▁▁▁▁▁▁▁▁</text><text class="terminal-1193037297-r17" x="317.2" y="776.4" textLength="195.2" clip-path="url(#terminal-1193037297-line-31)">▁▁▁▁▁▁▁▁▁▁▁▁▁▁▁▁</text><text class="terminal-1193037297-r16" x="536.8" y="776.4" textLength="195.2" clip-path="url(#terminal-1193037297-line-31)">▁▁▁▁▁▁▁▁▁▁▁▁▁▁▁▁</text><text class="terminal-1193037297-r1" x="1268.8" y="776.4" textLength="12.2" clip-path="url(#terminal-1193037297-line-31)">
</text><text class="terminal-1193037297-r1" x="1268.8" y="800.8" textLength="12.2" clip-path="url(#terminal-1193037297-line-32)">
</text><text class="terminal-1193037297-r18" x="0" y="825.2" textLength="61" clip-path="url(#terminal-1193037297-line-33)">&#160;esc&#160;</text><text class="terminal-1193037297-r7" x="61" y="825.2" textLength="85.4" clip-path="url(#terminal-1193037297-line-33)">Retour&#160;</text><text class="terminal-1193037297-r19" x="1122.4" y="825.2" textLength="12.2" clip-path="url(#terminal-1193037297-line-33)">▏</text><text class="terminal-1193037297-r18" x="1134.6" y="825.2" textLength="24.4" clip-path="url(#terminal-1193037297-line-33)">^p</text><text class="terminal-1193037297-r7" x="1159" y="825.2" textLength="97.6" clip-path="url(#terminal-1193037297-line-33)">&#160;palette</text>
    </g>
    </g>
</svg>
